<?xml version="1.0" standalone="no"?><!DOCTYPE svg PUBLIC "-//W3C//DTD SVG 1.1//EN" "http://www.w3.org/Graphics/SVG/1.1/DTD/svg11.dtd"><svg t="1725363410790" class="icon" viewBox="0 0 1024 1024" version="1.1" xmlns="http://www.w3.org/2000/svg" p-id="9177" xmlns:xlink="http://www.w3.org/1999/xlink" width="200" height="200"><path d="M834.761938 122.971524c87.990999 4.891533 159.463978 94.28531 159.463978 189.019349 0 246.399861-365.94327 625.065159-483.6473 625.065159C450.408717 937.051989 26.95153 558.386691 26.95153 311.98683c0-89.333139 63.585887-180.145865 144.647888-187.895509 142.529571-13.619483 339.096434 111.874617 339.096434 111.874617s183.19802-120.820867 324.066086-112.994414z" fill="#FF001C" opacity=".08" p-id="9178"></path><path d="M469.489739 576.048764m-21.041678 0a21.041677 21.041677 0 1 0 42.083355 0 21.041677 21.041677 0 1 0-42.083355 0Z" fill="#F9D5B3" p-id="9179"></path><path d="M469.489739 603.154325c-14.945453 0-27.105561-12.160109-27.105562-27.105561s12.160109-27.105561 27.105562-27.105562 27.101519 12.160109 27.101518 27.105562-12.156066 27.105561-27.101518 27.105561z m0-42.083355c-8.25901 0-14.977793 6.718783-14.977794 14.977794s6.718783 14.977793 14.977794 14.977793c8.254967 0 14.973751-6.718783 14.97375-14.977793s-6.714741-14.977793-14.97375-14.977794z" fill="#6E6E96" p-id="9180"></path><path d="M452.304692 582.864569c-95.445534-151.435396-107.767346-175.019862-107.767346-175.019861s9.690087-13.575015 26.82258-18.709104c17.128451-5.130046 16.590787-3.395775 16.590786-3.395775 4.321528 4.911746 24.194897 60.101175 36.209473 84.712459 7.24432 14.836303 47.225528 87.053118 47.225528 87.053119" fill="#F9D5B3" p-id="9181"></path><path d="M452.308734 588.928453c-2.013209 0-3.98195-1.002562-5.138131-2.829812-94.491483-149.919425-107.504578-174.474112-108.013944-175.444334l-1.722143-3.298753 2.162786-3.031942c0.444685-0.622559 11.117121-15.329499 30.016225-20.993166 16.449296-4.927916 19.752091-4.834937 22.602117-1.960656l2.558959 2.587257-0.254683 0.877242c2.724705 5.008768 6.920913 15.26886 14.759493 34.826907 6.823891 17.019301 14.553322 36.310537 20.32614 48.135111 7.090702 14.529066 46.679779 86.054599 47.079995 86.778222a6.063884 6.063884 0 0 1-10.611797 5.873883c-1.633206-2.95109-40.138869-72.524052-47.367019-87.332057-5.966862-12.220747-13.789272-31.734326-20.68593-48.943629-4.802596-11.986277-10.603712-26.446619-13.465865-32.271991-2.009167 0.412344-5.518134 1.26533-11.464783 3.04407-10.296475 3.084496-17.662073 9.770938-21.223594 13.599271 6.173034 10.797756 29.506859 50.427259 105.560092 171.086422a6.063884 6.063884 0 0 1-5.117918 9.297955z" fill="#6E6E96" p-id="9182"></path><path d="M224.925213 506.61325l43.554857 22.096793-6.140693 12.010533-48.595966-6.039629-25.015542-11.2101c-67.292942-53.143879-48.013833-91.09975-48.013834-91.09975s1.600865-13.663952 19.299322-15.543756c17.698456-1.871719 22.488924 16.784831 22.488924 16.784831s-11.072652 17.904628 10.862437 38.339917c11.937766 11.121163 31.560495 34.661161 31.560495 34.661161z" fill="#F9D5B3" p-id="9183"></path><path d="M265.811961 547.261485L212.10212 540.583128l-27.121732-12.362238c-65.202923-51.494503-52.970048-90.719747-50.120022-97.588106 1.24916-6.621761 7.624323-18.046119 24.526389-19.841029 18.426122-1.9364 26.980241 13.425439 29.001536 21.308489l0.642772 2.502362-1.35831 2.195126c-0.295109 0.505324-7.927518 14.16119 9.835619 30.715594 10.826054 10.098388 27.388543 29.636222 31.269429 34.252859l47.872342 24.283834-10.838182 21.211466z m-50.411088-18.486761l43.478048 5.404942 1.435119-2.809599-39.245457-19.909753-0.800433-0.958093c-0.194044-0.23447-19.521664-23.378294-31.026873-34.111369-18.139098-16.902066-17.108238-34.293285-13.287991-43.227407-1.544269-3.743438-5.88601-11.299037-15.289072-10.304561-12.730114 1.350225-13.906507 10.130729-13.914593 10.219666l-0.12532 1.075329-0.489153 0.966179c-0.129363 0.274896-15.454819 34.475202 45.778281 83.131806l23.487444 10.52286z" fill="#6E6E96" p-id="9184"></path><path d="M205.743127 304.132079s45.988496 8.428799 45.988496-20.326139v-14.371405h39.103966s-3.056198 35.756702 30.33559 35.756702c0 0 31.879859 61.09161-11.674997 72.435116-43.546772 11.347548-103.753055-54.692191-103.753055-73.494274z" fill="#F9D5B3" p-id="9185"></path><path d="M297.465436 312.322365s18.446335-1.083414 18.446335 13.538632l4.212378-13.538632c0.004043 0-5.79303-4.325571-22.658713 0z" opacity=".06" p-id="9186"></path><path d="M276.904827 568.804444c56.7054 0 77.747078-8.659226 83.176275-19.950179-1.406821-8.909867-3.573649-15.434606-6.561123-18.511016a40.373339 40.373339 0 0 0-2.275978-3.658543c-28.221316-12.212662-115.957632-21.179125-145.19768-0.048511-0.282981 1.758526-0.456813 3.537266-0.456812 5.32409-4.204293 2.781301-6.965381 8.845185-8.558162 17.241643-0.012128 1.152138 0.990434 19.602516 79.87348 19.602516z" fill="#825B7E" p-id="9187"></path><path d="M394.119704 391.912863l-8.760291-31.592835s-26.640664-59.644363-64.196319-59.644363c0 0-11.561805 8.38433-7.086659 34.17605-0.873199 7.523259-2.647896 15.054603-8.016454 20.884017-27.849398 30.242611-47.249784-54.975172-81.955413-52.666854-1.766612 0-3.448329 0.080852-5.05728 0.214257h-0.004042c-9.209018-0.642772-33.618173 8.47731-46.914249 32.235607-25.266183 45.143595-33.011784 82.444566-33.011785 82.444567s-9.415191 23.843192 7.697091 28.225358c25.856401 6.629846 35.251379-9.39902 35.251378-9.39902l16.404828-34.766268c2.712577 5.898138 13.522461 11.33542 16.445253 16.024824 43.46592 69.577005-95.50213 143.762561 61.782892 143.762561 170.593226 0 8.917952-75.240672 59.090528-140.136358a93.828498 93.828498 0 0 0 8.671355-13.647782c2.526618 4.802596 4.487274 7.551557 8.028582 11.626487-0.004043-0.036383 11.323293 11.197972 29.967714-1.600865 9.807322-6.734954 14.670557-16.000568 11.662871-26.139383z" fill="#FFFFFF" p-id="9188"></path><path d="M276.694612 567.866563c-45.612535 0-70.025732-6.168991-79.161984-20.002732-9.099869-13.781187-1.475545-31.637304 6.597506-50.540451 10.118601-23.685531 21.583384-50.536409 5.635369-76.065361-0.735751-1.176393-3.51301-3.351307-5.744519-5.093662-1.346182-1.051073-2.708535-2.114274-4.010249-3.217902l-12.467345 26.426407c-0.076809 0.165746-0.161704 0.323407-0.250641 0.477025-0.335535 0.574048-8.436884 14.003529-28.605362 14.00353-4.228548 0-8.731993-0.602346-13.38097-1.79491-5.66771-1.45129-9.969025-4.770255-12.430962-9.593064-5.085577-9.96094-0.727666-23.172122 0.404259-26.232362 1.047031-4.774298 9.38285-40.49866 33.553491-83.681599 13.821613-24.696178 39.960995-35.857767 52.133232-35.352444 1.645334-0.12532 3.355349-0.198087 5.138131-0.198087 0.198087-0.024256 0.792348-0.044468 1.386608-0.044468 18.430165 0 32.049648 18.721231 44.064223 35.239251 8.174116 11.238398 17.43973 23.976597 24.384899 23.976597 2.308318 0 4.883448-1.528099 7.660707-4.547913 4.256847-4.62068 5.639412-10.927119 6.35495-16.635255-4.560041-28.011101 8.170073-38.153958 9.653703-39.229286 1.034903-0.751922 2.28002-1.156181 3.557479-1.156181 41.016111 0 68.578485 60.650967 69.734665 63.234182 0.121278 0.274896 0.226385 0.56192 0.307237 0.852986l8.760291 31.592836c3.610032 12.156066-1.511928 24.134258-14.076296 32.757101-6.949211 4.770255-13.898422 7.187724-20.653588 7.187724-9.28987 0-15.123327-4.572169-16.748448-6.031544a5.962819 5.962819 0 0 1-0.574048-0.57809 84.344583 84.344583 0 0 1-3.262369-3.957695c-1.305756 1.984911-2.660024 3.888971-4.054717 5.704094-18.377611 23.774468-4.677276 48.963842 8.574332 73.328527 9.811364 18.038034 19.076979 35.073505 10.931161 48.769798-8.50965 14.306724-33.452427 20.402948-83.410745 20.402948zM198.466466 395.955453h0.028298a6.055799 6.055799 0 0 1 5.477709 3.533223c0.893412 1.940443 4.721744 4.936002 7.519216 7.118999 3.444286 2.696407 6.69857 5.239196 8.566247 8.22667 19.299321 30.893468 5.954734 62.142683-4.770256 87.251205-7.050276 16.505892-13.138415 30.760062-7.632408 39.095881 6.379206 9.661788 29.607924 14.561407 69.03934 14.561407 42.718041 0 67.268686-4.867278 72.976822-14.464385 4.62068-7.769857-3.04407-21.862323-11.161589-36.78352-13.69225-25.177246-30.735807-56.507313-7.519216-86.535667a87.691847 87.691847 0 0 0 8.093264-12.754369c1.047031-1.997039 3.112794-3.246199 5.368558-3.250242h0.004043c2.251722 0 4.317485 1.24916 5.368559 3.242157 2.150658 4.0911 3.74748 6.423674 6.965381 10.150941 0.804475 0.658942 3.739395 2.757046 8.444969 2.757046 4.260889 0 8.897739-1.70193 13.793315-5.057279 5.700051-3.913226 11.941809-10.454136 9.281785-19.408471l-8.659227-31.229003c-2.259807-4.838979-25.545122-53.103453-56.066671-55.573475-2.158743 2.797472-6.367078 10.627967-3.52918 26.976199 0.097022 0.574048 0.113193 1.156181 0.048511 1.734271-0.857029 7.397938-2.720663 16.84547-9.580937 24.291919-5.166429 5.611114-10.745202 8.457097-16.582701 8.457097-13.118202 0-23.354038-14.072253-34.19222-28.969195-10.587541-14.561407-22.6385-31.043043-35.239252-30.214313-1.992997 0.012128-3.504925 0.084894-4.956214 0.206172a5.849627 5.849627 0 0 1-0.92171 0.008085l-0.537665-0.01617c-8.226669 0-29.280474 8.80476-40.672491 29.163239-24.526389 43.821668-32.292203 80.350505-32.36497 80.714338a6.241758 6.241758 0 0 1-0.299151 0.994477c-1.079371 2.777259-3.60599 11.844787-1.067244 16.784831 0.54575 1.067244 1.621078 2.571087 4.632807 3.343221 3.666629 0.937881 7.159426 1.418949 10.369242 1.418949 12.026703 0 17.20526-6.658145 18.062289-7.899219l16.230996-34.398393c0.99852-2.122359 3.133007-3.476627 5.481751-3.476626z" fill="#6E6E96" p-id="9189"></path><path d="M295.355204 544.443801c-103.041559 23.766383-90.958259-31.891987-90.958259-31.891988-0.004043 0 0 0 0 0-9.116039 29.106643-9.621363 49.238738 72.293624 49.238738 118.888509 0 72.681713-36.54905 56.705401-80.669869 16.784831 42.548252 12.540112 51.660249-38.040766 63.323119z" opacity=".05" p-id="9190"></path><path d="M174.146249 608.397563c36.625859 189.621694 36.480326 189.152754 72.67767 365.078156H287.941095l-1.03086-365.078156H174.146249z" fill="#F9D5B3" p-id="9191"></path><path d="M287.937053 979.53556H246.819877c-2.878324 0-5.360473-2.021295-5.938564-4.838979-35.380742-171.975792-36.035641-175.363482-70.256159-352.554214l-2.433639-12.596708a6.063884 6.063884 0 0 1 5.954734-7.21198h112.763986a6.063884 6.063884 0 0 1 6.063884 6.047714l1.03086 365.078155a6.055799 6.055799 0 0 1-6.067926 6.076012z m-36.173089-12.127768h30.093034l-0.994477-352.950387H181.491634l1.038945 5.384729c33.884984 175.444333 34.84712 180.420761 69.233385 347.565658z" fill="#6E6E96" p-id="9192"></path><path d="M384.486213 608.397563s-16.50185 192.415123-52.011954 365.078156H283.571056l1.026818-365.078156h99.888339z" fill="#F9D5B3" p-id="9193"></path><path d="M337.418346 979.53556H277.491002l1.063201-377.205923h112.541644l-0.565963 6.581335c-0.165746 1.932358-16.938449 194.747697-52.117061 365.777524l-0.994477 4.847064z m-47.763193-12.127768h37.870977c30.735807-151.269649 47.100208-318.095182 50.326194-352.950387H290.645588l-0.990435 352.950387z" fill="#6E6E96" p-id="9194"></path><path d="M245.776889 968.41844c0 19.440812-46.198711 19.962306-43.708476 33.6303 2.49832 13.663952 19.072936 8.845185 47.928939 8.845185 26.014062 0 43.482091 12.422877 44.419971-6.387291 0.493196-9.924557-11.113078-40.890791-23.471273-45.394235" fill="#F9D5B3" p-id="9195"></path><path d="M284.707024 1020.988271c-3.864715 0-8.230712-0.768092-13.102032-1.629164-6.35495-1.12384-13.558845-2.397255-21.60764-2.397255-6.504526 0-12.44309 0.250641-17.678243 0.472983-18.628252 0.804475-33.339234 1.422991-36.217558-14.294596-2.061721-11.331378 10.910949-16.210783 22.355519-20.512098 9.471787-3.561521 21.255935-7.996242 21.255935-14.209701a6.063884 6.063884 0 1 1 12.127768 0c0 14.609918-16.142059 20.681887-29.114728 25.557249-5.134088 1.932358-13.728633 5.162387-14.743324 7.284746 0.877242 4.232591 4.422593 4.879405 23.818937 4.05876 5.356431-0.230428 11.4284-0.485111 18.191652-0.485111 9.107954 0 17.209303 1.431077 23.717871 2.583215 5.142174 0.90554 12.184364 2.146615 13.643739 0.990434 0.287024-0.226385 0.861072-1.398736 1.002562-4.20025 0.412344-8.267095-10.607754-36.152876-19.489323-39.39099a6.063884 6.063884 0 1 1 4.151739-11.39606c16.085463 5.857712 28.007059 40.252062 27.453224 51.389396-0.303194 6.063884-2.118317 10.344986-5.554517 13.077776-2.890451 2.308318-6.294312 3.100666-10.211581 3.100666z" fill="#6E6E96" p-id="9196"></path><path d="M333.784058 967.035874c-2.122359 20.297841 42.633147 22.205943 39.904399 35.833512-2.728748 13.619483-21.71679 7.967944-47.932981 7.967943-29.846437 0-43.478048 11.630529-44.088479-7.195809-0.331492-10.187325 12.059044-41.198028 24.829583-45.240617" fill="#F9D5B3" p-id="9197"></path><path d="M290.500054 1020.458692c-3.775778 0-6.953254-0.764049-9.686044-3.023857-4.394295-3.626203-5.077492-9.500085-5.210897-13.595228-0.371918-11.392017 12.45926-45.96424 29.058132-51.219606a6.059841 6.059841 0 1 1 3.658543 11.561805c-9.128167 2.894494-20.871889 30.816658-20.596992 39.26567 0.12532 3.791949 0.836816 4.657063 0.840858 4.665148 1.245118 0.719581 7.268576-0.242555 11.670955-0.941923 6.722826-1.067244 15.086943-2.393213 25.516824-2.393213 6.694528 0 12.928201 0.35979 18.430165 0.675112 17.468028 1.010647 22.678926 0.634687 23.56021-3.771736-0.78022-1.887889-8.671354-5.348346-13.385013-7.422194-11.909468-5.227068-28.221316-12.386494-26.60428-27.85344 0.347663-3.327051 3.314923-5.700051 6.662187-5.400899a6.063884 6.063884 0 0 1 5.396857 6.662187c-0.642772 6.164949 8.020497 10.482434 19.420599 15.483117 10.595627 4.648978 22.598074 9.924557 20.398905 20.908272-3.084496 15.402265-19.153788 14.47247-36.148833 13.498206-5.336218-0.307237-11.383931-0.654899-17.730797-0.6549-9.475829 0-17.31441 1.245118-23.616807 2.243637-4.41855 0.699368-8.263053 1.313842-11.634572 1.313842z" fill="#6E6E96" p-id="9198"></path><path d="M174.146249 608.397563h210.339964l-1.237032 12.782668H177.343937z" fill="#8F0000" opacity=".1" p-id="9199"></path><path d="M346.113956 484.379009c-4.5277-2.999601-8.630928-3.335136-11.723509-1.228948-30.832829 21.033592-116.462955 0.084894-116.774235 0.012128l-0.012128-0.01617-0.032341 0.004042c-2.845983 0.020213-6.654102 1.600865-10.822011 4.790469-20.188691 12.257131-60.650967 54.461763-50.989179 194.129181 0 0 97.74981 68.841253 257.12485-5.061322 0.004043 0-4.867278-176.159872-66.771447-192.62938z" fill="#FF9999" p-id="9200"></path><path d="M269.987956 717.284706h-0.008085c-73.89449-0.004043-115.957632-29.021749-117.712115-30.254738a6.067927 6.067927 0 0 1-2.55896-4.539828c-9.609235-138.927624 29.328985-184.653352 53.616863-199.566464 4.944087-3.723225 9.762853-5.736434 13.975231-5.833456 0.707453-0.040426 1.406821 0.056596 2.077891 0.258726 5.603029 1.330012 39.665886 9.103911 70.991911 9.103911 18.591868 0 32.627738-2.874281 40.599724-8.315606 4.919831-3.351307 11.420315-3.161305 17.633775 0.638729 66.201443 19.246768 70.345097 196.441542 70.345096 198.232409 0 2.360872-1.370438 4.507487-3.51301 5.497922-49.760232 23.079142-98.695775 34.778396-145.448321 34.778395z m-108.381819-38.675451c9.589022 5.809201 48.050217 26.543641 108.373734 26.547684 43.845924 0 89.818249-10.753288 136.712285-31.980925-1.952571-50.435344-16.218868-170.718547-62.13864-182.935251a6.10431 6.10431 0 0 1-1.790867-0.804475c-2.053635-1.362353-3.355349-1.564482-3.94961-1.564482a1.653419 1.653419 0 0 0-1.01469 0.295109c-10.130729 6.912828-26.090871 10.417753-47.427657 10.421795-31.997094 0-66.52485-7.725388-73.308315-9.318168-1.313842 0.222342-3.662586 1.224905-6.629846 3.492797a6.015373 6.015373 0 0 1-0.537665 0.367875c-17.504412 10.623925-57.040935 49.921935-48.288729 185.478041z" fill="#6E6E96" p-id="9201"></path><path d="M298.540765 47.189145S209.906994 26.216192 172.804109 173.022822c-38.90588 153.957971 108.389905 231.333131 108.389905 231.333131 147.9143-86.846946 144.255757-149.321121 147.910257-200.431578 0 0.004043 5.053237-147.041101-130.563506-156.73523z" fill="#B89772" p-id="9202"></path><path d="M281.35976 411.288994l-2.983431-1.568525c-1.515971-0.79639-151.063477-81.409664-111.446102-238.185319C196.910069 52.897281 260.851704 40.086316 286.946618 40.086316c6.520697 0 10.943289 0.772135 12.459261 1.083414 139.121669 10.260092 135.831001 161.517613 135.758234 163.041669-0.194044 2.728748-0.35979 5.34026-0.529579 7.984114-3.205773 50.49194-7.199852 113.325906-150.368152 197.387508l-2.906622 1.705973z m5.586858-359.07491c-23.257016 0-80.366675 11.917553-108.260541 122.292369-34.309455 135.770362 82.379885 211.047418 102.447298 222.843693C415.80011 317.456453 419.527377 258.705503 422.531021 211.427421c0.169789-2.676194 0.335535-5.320048 0.525537-7.935603 0-0.129363 0.990434-36.011386-14.140978-72.366391-19.917838-47.85213-57.194554-74.056194-110.807373-77.892611l-0.962136-0.149576c-0.01617 0.004043-3.897056-0.869157-10.199453-0.869156z" fill="#6E6E96" p-id="9203"></path><path d="M711.758073 307.503598l-59.53117 6.625804-5.691965-51.171095 59.527127-6.625804z" fill="#EDC0AF" p-id="9204"></path><path d="M650.464334 316.368997l-6.140693-55.189429 63.545462-7.074532 6.140693 55.18943-63.545462 7.074531z m-1.677674-51.619823l5.247281 47.156804 55.512836-6.177076-5.247281-47.156805-55.512836 6.177077zM351.628047 362.264513a6.063884 6.063884 0 0 1-4.786425-9.787108c0.456813-0.594261 32.498375-43.235493 16.230996-106.574782a6.063884 6.063884 0 1 1 11.747764-3.015772c17.839947 69.463812-16.918236 115.128901-18.405909 117.037003-1.192564 1.536184-2.983431 2.340659-4.786426 2.340659z" fill="#6E6E96" p-id="9205"></path><path d="M729.885044 985.340718c-0.760007-41.990375 29.1026-79.76433 47.302337-46.117858 33.16136 61.293739 74.197684 18.23612 74.787903 51.773441 0.258726 15.458862-6.350908 24.259578-32.142628 24.870009-5.481751 0.129363-12.713943-0.481068-20.657631-1.665546l0.01617 0.008085-0.024255-0.004043a232.671228 232.671228 0 0 1-12.3016-2.182998c-6.868359-0.654899-14.05204-0.12532-13.94289 4.968342l-33.399873 0.784262s-7.414109 1.495758-7.563685-6.957296l-0.392131-21.126571c-1.059158-1.427034-1.661504-2.890451-1.681717-4.349827z" fill="#9292A8" p-id="9206"></path><path d="M738.261289 1023.943404c-6.039628 0-12.20862-4.022376-12.370323-13.017138l-0.359791-19.408471a12.815008 12.815008 0 0 1-1.714058-6.080054c-0.396174-21.834025 7.280703-44.597845 19.097192-56.628591 5.530262-5.635369 11.695211-8.610715 17.823777-8.610716 5.954734 0 14.569492 2.797472 21.781471 16.133974 17.33058 32.03752 35.73649 32.81774 50.520238 33.444342 10.979673 0.464898 24.647667 1.042988 24.999373 21.106358 0.351705 20.835505-11.387974 30.404314-38.065021 31.043044l-1.641292 0.01617c-5.437283 0-12.374366-0.602346-20.051243-1.750441l0.080852-0.533622-0.169789 0.525537a237.991275 237.991275 0 0 1-12.212662-2.158743 38.606728 38.606728 0 0 0-3.452371-0.169789c-1.742356 0-2.845983 0.157661-3.508968 0.307237l0.097023 4.746-39.051413 0.917668a14.027785 14.027785 0 0 1-1.802995 0.117235z m-0.12532-12.143939l0.12532 0.016171 1.115755-0.101065 29.284517-0.68724c0.307237-0.4366 0.654899-0.852986 1.042988-1.24916 2.664066-2.724705 6.856231-4.046632 12.815008-4.046632 1.600865 0 3.270455 0.09298 4.919831 0.25064l0.638729 0.09298a222.382838 222.382838 0 0 0 11.97415 2.126402l-0.008086 0.060639 0.020213-0.064682c7.098787 1.059158 13.413311 1.612993 18.268461 1.612994l1.35831-0.016171c24.5749-0.582133 26.394066-8.465182 26.220235-18.705061-0.145533-8.356032-1.459375-8.691567-13.385014-9.19689-15.952057-0.675112-40.066103-1.697888-60.675222-39.791207-2.413426-4.463019-6.302397-9.779024-11.113078-9.779023-3.537266 0-6.941126 2.708535-9.172636 4.98047-9.532426 9.702214-15.9561 29.405795-15.620565 47.920853 0.004043 0 0.076809 0.291066 0.497239 0.865114l1.148095 1.556397 0.424472 23.05893c0.012128 0.533622 0.068724 0.881284 0.121278 1.095541z" fill="#6E6E96" p-id="9207"></path><path d="M731.942722 1010.829244l-0.384046-21.126572c-1.067244-1.439162-1.653419-2.914707-1.689802-4.361954-0.214257-12.09947 29.563456 11.99032 55.088364 18.333143 17.067812 5.780903 39.310138 6.597506 63.100777 1.487673-3.985993 6.799635-11.614359 10.308603-28.241529 10.696691-5.473666 0.129363-12.713943-0.481068-20.649546-1.665547l0.008085 0.008086-0.024256-0.004043a231.680793 231.680793 0 0 1-12.293514-2.182998c-6.868359-0.654899-14.05204-0.12532-13.950976 4.968342l-33.399873 0.78022c0 0.01617-7.406024 1.515971-7.563684-6.933041z" fill="#6E6E96" opacity=".66" p-id="9208"></path><path d="M862.097927 617.101258c0 16.792916-9.924557 29.175367-25.189374 29.175367-15.26886 0-19.857199-12.378408-19.857198-29.175367 0-16.801001 12.382451-30.420485 27.659396-30.420484s17.387177 13.615441 17.387176 30.420484z" fill="#F9D5B3" p-id="9209"></path><path d="M836.904511 652.340509c-11.824574 0-25.921083-6.116438-25.921083-35.239251 0-20.119967 15.127369-36.484369 33.72328-36.484368 23.455103 0 23.455103 24.643624 23.455103 36.484368 0 20.746568-12.855434 35.239251-31.2573 35.239251z m7.802197-59.595851c-11.905426 0-21.595512 10.927119-21.595512 24.3566 0 23.111483 9.318168 23.111483 13.793315 23.111483 11.440528 0 19.12549-9.28987 19.12549-23.111483 0.004043-20.59295-3.812162-24.356601-11.323293-24.3566z" fill="#6E6E96" p-id="9210"></path><path d="M640.741907 985.340718c0.760007-41.990375-29.1026-79.76433-47.302337-46.117858-33.16136 61.293739-74.197684 18.23612-74.787903 51.773441-0.254683 15.458862 6.35495 24.259578 32.142628 24.870009 5.485794 0.129363 12.717986-0.481068 20.661674-1.665546l-0.016171 0.008085 0.024256-0.004043a233.406979 233.406979 0 0 0 12.301599-2.182998c6.868359-0.654899 14.047998-0.12532 13.942891 4.968342l33.407958 0.784262s7.406024 1.495758 7.555599-6.957296l0.388089-21.126571c1.059158-1.427034 1.657462-2.890451 1.681717-4.349827z" fill="#9292A8" p-id="9211"></path><path d="M632.373747 1023.943404c-0.004043 0-0.004043 0 0 0-0.747879 0-1.366395-0.060639-1.794909-0.113193l-39.055456-0.917668 0.097022-4.745999a16.235039 16.235039 0 0 0-3.51301-0.307237 38.606728 38.606728 0 0 0-3.452371 0.169789 230.95717 230.95717 0 0 1-12.297557 2.17087l-0.008085-0.024255v0.020212c-7.676877 1.144053-14.61396 1.750441-20.055285 1.750442l-1.641292-0.016171c-26.673004-0.634687-38.408641-10.203495-38.065021-31.034958 0.355748-20.071456 14.0197-20.645504 24.999373-21.114444 14.787792-0.626601 33.189658-1.410864 50.520238-33.444341 7.211979-13.336502 15.826737-16.133974 21.781471-16.133974 6.132608 0 12.297557 2.975346 17.827819 8.610715 11.816489 12.034788 19.48528 34.790524 19.09315 56.640719a12.750327 12.750327 0 0 1-1.714058 6.067926l-0.355748 19.412514c-0.165746 8.986676-6.326652 13.009052-12.366281 13.009053z m-30.408357-12.916073l30.351761 0.804475 0.056596-0.01617h0.004043l0.113192-0.004043c0.052554-0.214257 0.10915-0.565963 0.117235-1.095541l0.42043-23.062972 1.148095-1.556397c0.444685-0.598303 0.501281-0.897455 0.501281-0.901498 0.331492-18.470591-6.08814-38.178213-15.620565-47.88447-2.231509-2.271935-5.635369-4.98047-9.176678-4.98047-4.810681 0-8.699652 5.316005-11.113078 9.779023-20.60912 38.093319-44.719123 39.116094-60.675223 39.791207-11.921596 0.505324-13.235437 0.840859-13.385013 9.200933-0.169789 10.235836 1.653419 18.118885 26.220234 18.701018l1.35831 0.016171c4.851107 0 11.173717-0.557877 18.272504-1.612993v0.004042a225.778613 225.778613 0 0 0 11.986277-2.126402l0.638729-0.092979c1.649376-0.157661 3.318966-0.250641 4.919832-0.250641 5.954734 0 10.146899 1.321927 12.810965 4.046632 0.392131 0.388089 0.739794 0.800433 1.051073 1.241075z" fill="#6E6E96" p-id="9212"></path><path d="M638.672101 1010.829244l0.388089-21.126572c1.071286-1.439162 1.657462-2.914707 1.681717-4.361954 0.214257-12.09947-29.559413 11.99032-55.088364 18.333143-17.063769 5.780903-39.298011 6.597506-63.088649 1.487673 3.98195 6.799635 11.614359 10.308603 28.229401 10.696691 5.485794 0.129363 12.717986-0.481068 20.661674-1.665547l-0.016171 0.008086 0.024256-0.004043a233.406979 233.406979 0 0 0 12.301599-2.182998c6.868359-0.654899 14.047998-0.12532 13.942891 4.968342l33.407958 0.78022c0 0.01617 7.406024 1.515971 7.555599-6.933041z" fill="#6E6E96" opacity=".66" p-id="9213"></path><path d="M683.164839 613.228458l-39.043327 336.335345s-1.612993 17.617604-41.958035 17.617604c-40.005464 0-37.135225-30.412399-37.135225-30.412399s-8.303478-26.531514 10.809884-216.666617c20.972953-208.739099 44.989976-247.13157 60.679265-235.044227 30.351761 23.378294 114.740812 0 114.740813 0 17.015258 0 38.489493 28.637703 50.160448 238.35915 10.644138 191.008302 1.184479 217.014279 1.184478 217.01428s1.507886 28.18089-38.436939 28.18089c-39.81142 0-41.444626-23.321698-41.444625-23.321698l-39.556737-332.062328" fill="#9FB3C9" p-id="9214"></path><path d="M764.166201 974.676368c-44.945508 0-47.411487-27.776631-47.492339-28.96111l-33.432214-280.575911-33.100721 285.123824c-0.202129 2.223424-3.391732 22.986163-47.981492 22.986163-15.454819 0-27.117689-4.204293-34.665204-12.499686-8.238797-9.051357-8.655184-20.043158-8.562204-23.487444-1.402778-7.22815-6.233673-47.613617 10.870523-217.766201 21.838067-217.361942 45.523598-242.498762 61.43523-242.498763 3.149177 0 6.164949 1.095542 8.974548 3.26237 7.866879 6.059841 21.166998 9.128167 39.536523 9.128167 32.793484 0 69.516366-10.07009 69.884242-10.171155 0.525537-0.145533 1.071286-0.222342 1.617035-0.222342 22.141262 0 44.274438 29.567498 56.216247 244.0875 9.520298 170.932804 2.914707 210.982736 1.192564 218.121948-0.076809 3.234071-0.974264 12.883732-8.736035 21.069976-7.794112 8.230712-19.828901 12.402664-35.756703 12.402664z m-81.001362-367.511794a6.063884 6.063884 0 0 1 6.019416 5.344303l39.556736 332.066371c0.097022 0.917668 2.300233 17.973352 35.42521 17.973352 12.362238 0 21.385297-2.850025 26.82258-8.473267 5.736434-5.930479 5.566645-13.073734 5.558561-13.380971a6.217502 6.217502 0 0 1 0.35979-2.336617c0.307237-1.018733 8.707737-30.650912-1.544269-214.604896-10.526903-189.185095-29.276432-231.296747-43.413367-232.598461-6.164949 1.645334-40.340999 10.357114-72.19256 10.357114-21.110401 0-36.900755-3.921312-46.934461-11.650742-0.35979-0.274896-1.042988-0.739794-1.57661-0.739794-1.063201 0-26.361725 2.631726-49.372143 231.587814-18.466548 183.755897-11.133291 213.994465-11.05244 214.245105 0.242555 0.768092 0.323407 1.580652 0.250641 2.381085-0.004043 0.044468-0.610431 8.748163 5.501964 15.36184 5.162387 5.586858 13.777144 8.420714 25.593633 8.420713 33.205829 0 35.930534-12.249046 35.954789-12.374366l39.023115-336.21811a6.063884 6.063884 0 0 1 6.015373-5.364516c-0.004043 0.004043 0 0.004043 0.004042 0.004043z" fill="#6E6E96" p-id="9215"></path><path d="M625.448792 485.397741c3.994078-3.177475 7.721346-2.906622 11.068609-0.331492 30.343675 23.382337 114.740812 0 114.740813 0 5.279622 0 10.95946 2.761088 16.65951 12.778625-0.01617 0.004043-123.189824 27.388543-142.468932-12.447133z" opacity=".05" p-id="9216"></path><path d="M688.112969 509.046889c-35.473721 0-57.170298-7.660707-64.483343-22.767863l-0.70341-1.455333 1.261288-1.006604c4.463019-3.553436 9.253487-3.662586 13.558844-0.351706 8.590502 6.617719 22.719352 9.973068 42.002503 9.973068 33.319021 0 70.595737-10.215623 70.967656-10.32073l0.541707-0.072767c7.110915 0 13.134373 4.515572 18.418036 13.8014l1.313842 2.312361-2.579172 0.646814c-0.367876 0.09298-41.392072 9.241359-80.297951 9.24136z m-60.036494-23.006376c7.345385 12.584581 27.530033 18.963786 60.036494 18.963786 32.288161 0 66.755277-6.536867 76.598982-8.550076-5.267494-8.117519-9.96094-9.310083-13.195012-9.36668-3.517053 0.945966-39.423331 10.389455-71.768088 10.389455-20.196776 0-35.154357-3.63833-44.468482-10.813927-2.405341-1.847463-4.709617-2.065763-7.203894-0.622558z" fill="#6E6E96" opacity=".05" p-id="9217"></path><path d="M818.724987 138.571876c-1.491715-14.286511-10.098388-25.836188-21.292318-30.561975-17.815691-61.253313-77.375159-102.924324-143.075321-96.051922-58.237542 6.092182-103.858162 48.494901-116.810618 102.354319-14.456299 4.572169-24.142343 20.439332-22.286795 38.145873 1.608951 15.48716 11.582018 27.756418 24.166599 31.588793 18.033991 60.942034 77.411543 102.321978 142.913617 95.469789 58.815632-6.152821 104.759659-49.343845 117.162323-103.983483 12.734156-5.704094 20.944655-20.540396 19.222513-36.961394z" fill="#EDC0AF" p-id="9218"></path><path d="M668.203216 282.281884h-0.012128c-59.583724-0.004043-113.046967-39.686099-130.389675-96.634055-13.142458-4.51153-22.94978-17.617604-24.54256-32.979444-1.883847-17.957182 7.575812-34.53584 22.598074-39.912484 13.845868-55.585603 61.245228-96.840227 118.298291-102.807089a137.84421 137.84421 0 0 1 14.36332-0.751921c59.907131 0 113.471439 39.981208 130.595848 97.341508 11.88117 5.425155 20.132095 17.524625 21.627853 31.823263 1.722143 16.416955-6.253886 32.118372-19.477196 38.586515a136.477815 136.477815 0 0 1-118.70255 104.581785 137.997829 137.997829 0 0 1-14.359277 0.751922z m0.31128-269.038361a135.34589 135.34589 0 0 0-13.942891 0.727666c-55.719008 5.829414-101.958145 46.344244-115.052092 100.818134l-0.266811 1.111713-1.091499 0.34362c-13.829698 4.374082-22.614245 19.517621-20.884016 36.007343 1.475545 14.169276 10.61584 26.171723 22.743607 29.866649l1.042988 0.319365 0.307237 1.042988c16.509935 55.791775 68.659337 94.758293 126.820069 94.762336h0.012128a135.224612 135.224612 0 0 0 13.930763-0.727666 132.435226 132.435226 0 0 0 115.403797-102.419l0.222342-0.982349 0.921711-0.412345c12.204577-5.473666 19.618686-19.832943 18.038033-34.911801-1.35831-12.988839-9.233274-24.336388-20.067413-28.908556l-0.88937-0.371918-0.266811-0.925753c-16.328018-56.139438-68.546144-95.340426-126.981772-95.340426z" fill="#6E6E96" p-id="9219"></path><path d="M668.203216 286.324473h-0.012128c-60.683308-0.004043-115.197625-39.981208-133.66013-97.592148-13.615441-5.594944-23.612764-19.501451-25.294481-35.64351-1.988954-18.992085 7.644536-36.625859 23.21659-43.332515 14.892899-56.204119 63.238225-97.753852 121.277679-103.825821a142.634679 142.634679 0 0 1 14.78375-0.772135c61.087567 0 115.775715 40.369297 133.947154 98.517901 12.277344 6.350908 20.722313 19.214427 22.298922 34.26903 1.819165 17.366964-6.314525 34.054772-19.998689 41.735692a140.504234 140.504234 0 0 1-121.783003 105.871372 142.654892 142.654892 0 0 1-14.775664 0.772134z m0.31128-269.038361c-4.483232 0-9.031145 0.238513-13.522462 0.707453-54.021121 5.65154-98.845351 44.929338-111.547166 97.741724l-0.796391 3.331094-3.270454 1.03086c-12.00649 3.795991-19.614643 17.140579-18.082502 31.730284 1.305756 12.576495 9.306041 23.192335 19.901667 26.422363l3.116836 0.950009 0.925753 3.128964c16.004611 54.085802 66.561233 91.863799 122.947269 91.867842h0.008085c4.475146 0 9.019017-0.238513 13.510334-0.707453A128.392636 128.392636 0 0 0 793.588166 174.195173l0.67107-2.95109 2.761089-1.241075c10.627967-4.770255 17.071855-17.435688 15.669076-30.80453-1.204692-11.545635-8.121562-21.595512-17.613562-25.605761l-2.660024-1.119797-0.804475-2.773216c-15.826737-54.40921-66.443998-92.413592-123.096844-92.413592z" fill="#6E6E96" p-id="9220"></path><path d="M474.672338 588.051211m-26.410236 0a26.410236 26.410236 0 1 0 52.820472 0 26.410236 26.410236 0 1 0-52.820472 0Z" fill="#F9D5B3" p-id="9221"></path><path d="M474.672338 620.525331c-17.908671 0-32.47412-14.569492-32.47412-32.47412 0-17.904628 14.569492-32.470077 32.47412-32.470077s32.47412 14.569492 32.47412 32.470077c0 17.904628-14.569492 32.47412-32.47412 32.47412z m0-52.820472a20.370608 20.370608 0 0 0-20.346352 20.34231c0 11.218185 9.128167 20.346352 20.346352 20.346352s20.346352-9.128167 20.346352-20.346352a20.370608 20.370608 0 0 0-20.346352-20.34231z" fill="#6E6E96" p-id="9222"></path><path d="M797.650969 108.745652c5.764732 55.11262-75.309396 144.069798-119.058298 150.671347-34.552011 5.21494-146.204285-57.117744-144.736825-112.509303 2.126402-80.601146 52.444511-127.495182 119.826389-134.541415 67.373793-7.054318 138.199958 41.258666 143.968734 96.379371z" fill="#B89772" p-id="9223"></path><path d="M674.153908 265.784077c-27.081306 0-83.394575-26.717473-118.213397-62.474175-18.878892-19.388258-28.613447-38.946305-28.144507-56.56391 2.077891-78.745597 50.071511-132.552461 125.251545-140.411255a134.294817 134.294817 0 0 1 13.906507-0.71958c67.11911 0 131.004149 47.900641 136.724413 102.499852 6.274099 59.987983-79.590498 150.570281-124.188343 157.29715a36.140748 36.140748 0 0 1-5.336218 0.371918z m-7.195809-248.045195c-4.248761 0-8.501565 0.222342-12.64522 0.654899-68.655294 7.179639-112.48909 56.4871-114.397192 128.671576-0.375961 14.27034 8.170073 30.796445 24.712349 47.783405 32.25582 33.120934 85.359273 58.807547 109.525872 58.807547 1.293629 0 2.48215-0.080852 3.533223-0.238513 38.825028-5.857712 119.401918-91.730394 113.932294-144.0415-5.020896-47.957237-64.438874-91.637414-124.661326-91.637414z" fill="#6E6E96" p-id="9224"></path><path d="M853.931897 589.850164c-12.220747-172.477073-46.332116-249.403505-61.127993-275.704591-4.066845-11.6467-13.92672-20.677844-31.229002-26.717473-1.847463-0.137448-4.18408-2.17087-6.189205-2.170871-0.258726-0.024256-0.513409 0-0.772134-0.01617-15.244604-4.297272-34.709672-6.836019-57.7969-6.836018-23.329783 0-44.896997 2.5913-62.518643 6.969424-0.760007-0.012128-2.635768 0.913625-3.456414 0.913625-0.388089 0.262768 0.384046-0.295109 0 0-17.76718 4.802596-31.030916 11.501167-37.300972 19.214427l-0.064681 0.044468c-2.494278 0.691283-4.705574 3.787906-4.705574 3.787906s0.45277-1.714058 0 0c-8.453054 7.507088-26.220234 26.80641-37.195864 63.670782-13.138415 44.116777-39.423331 85.419912-76.898134 188.655515l21.939132 43.672093s52.820472-77.371117 92.506571-158.538225c3.51301 19.497408 8.582417 40.830152 15.729715 63.868868 0.622559 3.26237 1.540227 6.597506 3.116836 9.831577l0.008086 0.008086c6.726869 13.837783 25.727038 25.824061 88.176958 22.428285 81.025618-4.40238 83.41883-4.564083 87.958658-35.558615l32.947103 105.329664 36.872457-22.852757z" fill="#FFFFFF" p-id="9225"></path><path d="M817.055397 618.750635a6.043671 6.043671 0 0 1-5.784945-4.252804l-26.636621-85.145016c-7.992199 15.264817-27.170243 16.307805-88.156745 19.622728-54.182825 2.943005-83.669471-4.99664-93.864881-25.638101-0.036383-0.068724-0.072767-0.129363-0.101065-0.198087-1.584695-3.258327-2.71662-6.763252-3.553436-11.007971a560.626286 560.626286 0 0 1-12.337983-46.809141c-38.226725 74.678752-84.502244 142.691275-84.999482 143.41894-1.212777 1.774697-3.274497 2.753003-5.413028 2.631726a6.063884 6.063884 0 0 1-5.01281-3.331093l-21.939132-43.672093a6.080054 6.080054 0 0 1-0.282982-4.790468c20.160393-55.537092 36.973522-92.943171 50.47577-122.99578 11.359676-25.274268 20.330182-45.232532 26.313214-65.324201 10.801799-36.282239 27.918122-56.309226 37.870977-65.469733 0.667027-1.297671 1.552354-2.090019 2.437681-2.57513 1.002562-0.970221 2.284063-2.001082 3.791949-2.753003 9.075613-10.094346 25.941296-16.364402 38.905879-19.909752 0.537664-0.206172 1.095542-0.347663 1.65342-0.404259l0.214257-0.07681c0.792348-0.270853 1.665547-0.574048 2.643853-0.707453 18.721231-4.604509 40.676534-7.038148 63.537376-7.038148 22.476797 0 42.212718 2.304276 58.686269 6.852189 2.433639 0.032341 4.446848 1.026818 5.926436 1.758527 0.335535 0.169789 0.658942 0.347663 0.978307 0.46894 0.400216 0.056596 0.788305 0.149576 1.168308 0.282981 18.147183 6.334737 29.842394 16.400785 34.770311 29.923246 18.066332 32.320502 49.824913 111.106525 61.637359 277.79461a6.063884 6.063884 0 0 1-2.854068 5.586858l-36.8765 22.836587a5.991117 5.991117 0 0 1-3.197688 0.921711z m-32.94306-117.45339c2.627683 0 4.984513 1.705973 5.784945 4.252804l30.614529 97.867044 27.109604-16.792916c-12.362238-168.713422-46.093603-244.613037-60.101175-269.507301a6.185162 6.185162 0 0 1-0.4366-0.974264c-3.541308-10.138814-12.362238-17.601434-26.964071-22.804246-1.596823-0.299152-2.947048-0.966179-4.066844-1.520014-0.367876-0.177874-0.727666-0.388089-1.0915-0.517451a13.368843 13.368843 0 0 0-0.48511-0.008086l-0.230428-0.004042a5.942606 5.942606 0 0 1-1.277458-0.214257c-15.329499-4.325571-34.750098-6.609634-56.151566-6.609634-22.068495 0-43.182939 2.348744-61.059269 6.787507a5.833456 5.833456 0 0 1-0.70341 0.133406 13.813528 13.813528 0 0 0-0.477026 0.165746c-0.727666 0.250641-1.515971 0.521494-2.393213 0.675112-0.153618 0.040426-0.315322 0.076809-0.472982 0.105108-16.332061 4.491317-28.205146 10.514775-33.464555 16.991003a6.076012 6.076012 0 0 1-1.301714 1.192563c-0.56192 0.392131-1.184479 0.68724-1.847463 0.869157a7.616238 7.616238 0 0 0-1.002562 0.994477 6.096225 6.096225 0 0 1-1.82725 1.960656c-7.385811 6.710698-24.397026 25.181289-34.879461 60.388199-6.21346 20.859761-15.329499 41.149517-26.871091 66.832087-13.22331 29.426008-29.63218 65.942717-49.246823 119.709154l16.085463 32.02135c14.739281-22.351476 54.902405-84.906503 86.317367-149.167503a6.071969 6.071969 0 0 1 11.420315 1.588738c3.711097 20.59295 8.942208 41.836757 15.551841 63.149287 0.068724 0.214257 0.121278 0.432557 0.165746 0.658942 0.622559 3.258327 1.431077 5.865797 2.546831 8.186244l0.072767 0.14149v-0.004042c2.35683 4.847065 9.528383 19.598473 62.648006 19.598473a362.822391 362.822391 0 0 0 19.752092-0.574048c78.458573-4.260889 78.458573-4.260889 82.282862-30.380059a6.071969 6.071969 0 0 1 5.999203-5.190684z" fill="#6E6E96" p-id="9226"></path><path d="M727.778855 237.809359a6.055799 6.055799 0 0 1-4.98047-9.516255c0.380003-0.54575 37.519271-55.104535 13.45778-97.677043a6.063884 6.063884 0 0 1 10.5552-5.970905c27.833227 49.238738-12.329897 108.078625-14.056083 110.560775-1.172351 1.693845-3.056198 2.603428-4.976427 2.603428zM784.084039 513.400757a6.063884 6.063884 0 0 1-5.898138-4.677276l-28.39919-120.98257a6.063884 6.063884 0 1 1 11.804361-2.769174l28.39919 120.982571a6.063884 6.063884 0 0 1-5.906223 7.446449zM589.105914 452.830642a6.063884 6.063884 0 0 1-5.514092-8.574332l21.041677-46.25935a6.063884 6.063884 0 0 1 11.036269 5.020896l-21.041677 46.25935c-1.010647 2.231509-3.213859 3.553436-5.522177 3.553436z" fill="#6E6E96" p-id="9227"></path><path d="M201.862241 100.753453s-68.036778 134.860779 79.331773 237.946807c0 0 84.708416-18.191652 74.601943-117.23509 0 0 32.340714-6.063884 32.340714 56.596251 0 0 52.553661-107.205426 0-191.048729 0 0 141.858501 188.930411-106.942657 317.335176 0 0-190.818301-80.690083-79.331773-303.594415z" fill="#6E6E96" opacity=".15" p-id="9228"></path><path d="M139.105085 417.943096s23.77851 21.644023 30.283036 0c6.508569-21.639981 16.615042-41.852927 39.859931-31.746454s39.415246 52.788131 39.415246 77.819844c0 25.02767 56.59625 13.138415 61.649487-26.27683s36.888627-55.080279 50.532366-41.436541 27.243009-9.544553 25.872572-31.051128l18.36144 60.242666s-19.748049 21.17104-37.551612 21.17104c-17.807606 0-8.962421-47.819789-31.754539-25.019585-22.800204 22.808289-7.866879 55.023683-1.398736 61.503953 6.476228 6.480271-56.863061 21.166998-116.774235 0.012128 0 0 28.023229-69.674027-12.402664-76.748558 0 0-5.077492-5.784945-13.886294 10.704777-8.800717 16.497807-47.569148 64.911857-52.205998 0.824688z" fill="#6E6E96" opacity=".15" p-id="9229"></path><path d="M334.390447 483.150061s39.605247 14.557364 39.605247 98.105558v75.463014s-16.287592 11.735637-49.558102 18.353356c-35.340316-126.157085 7.106872 2.041508-84.498202 2.041507-24.906393-3.052155-53.354094-9.334339-85.41587-20.394863v25.351078s126.148999 64.515683 258.378054-5.057279c-0.008085-0.004043 7.207937-174.72071-78.511127-193.862371z" fill="#6E6E96" opacity=".15" p-id="9230"></path><path d="M229.165889 887.554526s-29.005578-144.595334 12.766497-144.595335 41.772075 176.527747 41.772076 176.527748-5.384729-176.527747 45.818707-176.527748 14.25417 171.523022 14.25417 171.523022l31.920285-221.186232s-91.346348 31.00666-184.657394 2.611513l38.125659 191.647032z" fill="#6E6E96" opacity=".15" p-id="9231"></path><path d="M448.262102 588.051211s28.718554 19.380173 57.792857-33.743493 71.416383-183.266744 110.496094-183.266743c0 0 28.298125-4.042589 12.127768 35.037121s-16.170357 110.496094 25.60576 110.496094h78.151337s55.925181 2.021295 1.350225-140.144444c0 0-3.703012-48.175537 33.690939-10.781585 21.555086 21.559129 70.983826 233.770812 70.983826 233.770812s10.470306 48.127026 23.649147 17.678243c0 0-11.230313 44.193586-40.041847 22.096793v-29.63218l-24.934691-61.99715s-92.187207 43.35677-196.267711 0l7.110915-27.109603-23.758298-64.523768-87.590782 149.361547c-0.020213 0.004043-48.365539 21.890621-48.365539-17.241644z" fill="#6E6E96" opacity=".15" p-id="9232"></path><path d="M572.680873 752.742257s-13.934805 180.218631 29.72516 180.218632c43.647837 0 24.08979-347.662681 80.766891-347.662681 56.681145 0 29.284517 347.662681 64.208446 347.662681 34.927972 0 54.045376-78.830492 54.045377-242.555359 0 0 19.92188 262.242769-8.671354 270.226883-28.581106 7.992199-72.916183 19.258895-72.916184-39.580992 0-58.835845-30.525592-285.220846-30.525591-285.220847l-45.192106 313.733229s-48.519157 28.205146-76.724303 0l5.283664-196.821546z" fill="#6E6E96" opacity=".15" p-id="9233"></path><path d="M559.06139 64.628875s-53.97261 90.509532 63.557589 142.687233c117.514029 52.1777 113.192501-36.383304 99.043438-78.830492 0 0-24.255536-36.383304 0-36.383304s40.425893 22.234241 40.425893 40.425893 30.404314-37.519271 10.1469-75.357907c0 0 83.633088 100.721113-93.626369 202.234573-0.01617 0.012128-227.565437-56.503271-119.547451-194.775996z" fill="#6E6E96" opacity=".15" p-id="9234"></path></svg>